<svg width="16" height="16" viewBox="0 0 16 16" fill="none" xmlns="http://www.w3.org/2000/svg">
  <path d="M13.333 2.667C13.333 1.93 12.736 1.333 12 1.333C11.264 1.333 10.667 1.93 10.667 2.667C10.667 3.403 11.264 4 12 4C12.736 4 13.333 3.403 13.333 2.667Z" fill="#333333"/>
  <path d="M5.333 8C5.333 7.264 4.736 6.667 4 6.667C3.264 6.667 2.667 7.264 2.667 8C2.667 8.736 3.264 9.333 4 9.333C4.736 9.333 5.333 8.736 5.333 8Z" fill="#333333"/>
  <path d="M13.333 13.333C13.333 12.597 12.736 12 12 12C11.264 12 10.667 12.597 10.667 13.333C10.667 14.07 11.264 14.667 12 14.667C12.736 14.667 13.333 14.07 13.333 13.333Z" fill="#333333"/>
  <path d="M10.828 3.505L5.172 7.162" stroke="#333333" stroke-width="1.5" stroke-linecap="round"/>
  <path d="M10.828 12.495L5.172 8.838" stroke="#333333" stroke-width="1.5" stroke-linecap="round"/>
</svg> 