<svg width="200" height="200" viewBox="0 0 200 200" fill="none" xmlns="http://www.w3.org/2000/svg">
  <rect width="200" height="200" fill="#FDF4F0"/>
  <path d="M100 75C88.9543 75 80 83.9543 80 95C80 106.046 88.9543 115 100 115C111.046 115 120 106.046 120 95C120 83.9543 111.046 75 100 75ZM100 110C91.7157 110 85 103.284 85 95C85 86.7157 91.7157 80 100 80C108.284 80 115 86.7157 115 95C115 103.284 108.284 110 100 110Z" fill="#C97F5E"/>
  <path d="M100 55C98.8954 55 98 55.8954 98 57V65C98 66.1046 98.8954 67 100 67C101.105 67 102 66.1046 102 65V57C102 55.8954 101.105 55 100 55Z" fill="#C97F5E"/>
  <path d="M100 123C98.8954 123 98 123.895 98 125V143C98 144.105 98.8954 145 100 145C101.105 145 102 144.105 102 143V125C102 123.895 101.105 123 100 123Z" fill="#C97F5E"/>
  <path d="M120 95C120 93.8954 120.895 93 122 93H140C141.105 93 142 93.8954 142 95C142 96.1046 141.105 97 140 97H122C120.895 97 120 96.1046 120 95Z" fill="#C97F5E"/>
  <path d="M60 95C60 93.8954 60.8954 93 62 93H80C81.1046 93 82 93.8954 82 95C82 96.1046 81.1046 97 80 97H62C60.8954 97 60 96.1046 60 95Z" fill="#C97F5E"/>
  <path d="M114.142 80.8579C114.933 80.0673 116.199 80.0673 116.99 80.8579L126.99 90.8579C127.781 91.6484 127.781 92.9148 126.99 93.7053C126.2 94.4958 124.933 94.4958 124.142 93.7053L114.142 83.7053C113.352 82.9148 113.352 81.6484 114.142 80.8579Z" fill="#C97F5E"/>
  <path d="M73.0101 106.142C73.8006 105.352 75.067 105.352 75.8575 106.142L85.8575 116.142C86.648 116.933 86.648 118.199 85.8575 118.99C85.067 119.78 83.8006 119.78 83.0101 118.99L73.0101 108.99C72.2196 108.199 72.2196 106.933 73.0101 106.142Z" fill="#C97F5E"/>
  <path d="M83.0101 80.8579C83.8006 81.6484 83.8006 82.9148 83.0101 83.7053L73.0101 93.7053C72.2196 94.4958 70.9532 94.4958 70.1627 93.7053C69.3722 92.9148 69.3722 91.6484 70.1627 90.8579L80.1627 80.8579C80.9532 80.0673 82.2196 80.0673 83.0101 80.8579Z" fill="#C97F5E"/>
  <path d="M124.142 106.142C124.933 106.933 124.933 108.199 124.142 108.99L114.142 118.99C113.352 119.78 112.086 119.78 111.295 118.99C110.505 118.199 110.505 116.933 111.295 116.142L121.295 106.142C122.086 105.352 123.352 105.352 124.142 106.142Z" fill="#C97F5E"/>
</svg>