<svg width="200" height="200" viewBox="0 0 200 200" fill="none" xmlns="http://www.w3.org/2000/svg">
  <path d="M100 30C104.418 30 108 26.4183 108 22C108 17.5817 104.418 14 100 14C95.5817 14 92 17.5817 92 22C92 26.4183 95.5817 30 100 30Z" fill="#c97f5e"/>
  <path d="M100 40C97.7909 40 96 41.7909 96 44V60C96 62.2091 97.7909 64 100 64C102.209 64 104 62.2091 104 60V44C104 41.7909 102.209 40 100 40Z" fill="#c97f5e"/>
  <path d="M84 70C81.7909 70 80 71.7909 80 74V110C80 112.209 81.7909 114 84 114C86.2091 114 88 112.209 88 110V74C88 71.7909 86.2091 70 84 70Z" fill="#c97f5e"/>
  <path d="M116 70C113.791 70 112 71.7909 112 74V110C112 112.209 113.791 114 116 114C118.209 114 120 112.209 120 110V74C120 71.7909 118.209 70 116 70Z" fill="#c97f5e"/>
  <path d="M100 70C97.7909 70 96 71.7909 96 74V150C96 152.209 97.7909 154 100 154C102.209 154 104 152.209 104 150V74C104 71.7909 102.209 70 100 70Z" fill="#c97f5e"/>
  <path d="M68 120C65.7909 120 64 121.791 64 124V140C64 142.209 65.7909 144 68 144C70.2091 144 72 142.209 72 140V124C72 121.791 70.2091 120 68 120Z" fill="#c97f5e"/>
  <path d="M132 120C129.791 120 128 121.791 128 124V140C128 142.209 129.791 144 132 144C134.209 144 136 142.209 136 140V124C136 121.791 134.209 120 132 120Z" fill="#c97f5e"/>
  <path d="M84 160C81.7909 160 80 161.791 80 164V170C80 172.209 81.7909 174 84 174C86.2091 174 88 172.209 88 170V164C88 161.791 86.2091 160 84 160Z" fill="#c97f5e"/>
  <path d="M116 160C113.791 160 112 161.791 112 164V170C112 172.209 113.791 174 116 174C118.209 174 120 172.209 120 170V164C120 161.791 118.209 160 116 160Z" fill="#c97f5e"/>
</svg>